<svg version="1.2" xmlns="http://www.w3.org/2000/svg" viewBox="0 0 166 166" width="32" height="32">
	<title>sharka coffee</title>
	<style>
		.s0 { fill: #000000 } 
	</style>
	<g transform="translate(11.5, 0)">
		<path class="s0" d="m110 95.7c-2.7-1.2-6.6-2.3-11-3.6-9.2-1.8-17-4.6-23.1-7.5l11.6-5.7-18.1 2.3c-5.9-3.6-9.2-6.8-9.5-8.3-1.6-6.3 25.7-23.4 47.4-24.7 0-2.7 1-9.1 10.1-17.7 9.3-8.9 12-14.3 17.7-26.1 0 0-77.2 25.2-106.4 51.7-16.3 14.9-6.6 27.1 11.5 31.9 6.8 1.8 22 5.6 29.8 9.2 31.2 14.3-25.4 35.4-23.7 24.9 0.6-3.2 8.3-10.4 8.3-10.4 0 0-39.6 20.8-46.2 34.4-3.8 7.9-1.2 17.4 22.8 14.6 54.6-6.4 116.1-48.5 78.8-65z"/>
	</g>
</svg>